<?xml version="1.0" encoding="UTF-8" standalone="no"?>
<!DOCTYPE svg PUBLIC "-//W3C//DTD SVG 1.1//EN" "http://www.w3.org/Graphics/SVG/1.1/DTD/svg11.dtd">
<svg width="16.00" height="16.00" viewBox="0.00 0.00 16.00 16.00" xmlns="http://www.w3.org/2000/svg" xmlns:xlink="http://www.w3.org/1999/xlink">
<g stroke-linecap="round" id="Layer_1">
<path d="M10.94,2.81 C10.94,2.81 12.20,3.22 12.20,3.22 C12.20,3.22 11.09,2.81 11.09,2.81 C11.09,2.81 11.94,3.41 11.94,3.41 C11.94,3.41 13.03,4.22 13.03,4.22 C13.03,4.22 13.00,4.25 13.00,4.25" fill="none" stroke="rgb(244, 212, 120)" stroke-width="2.50" stroke-opacity="1.00" stroke-linejoin="round"/>
<path d="M10.78,2.81 C10.78,2.81 11.64,2.94 11.64,2.94 C11.64,2.94 12.06,3.25 12.06,3.25" fill="none" stroke="rgb(244, 212, 120)" stroke-width="2.50" stroke-opacity="1.00" stroke-linejoin="round"/>
<path d="M12.59,3.59 C12.59,3.59 13.03,3.62 13.03,3.62" fill="none" stroke="rgb(244, 212, 120)" stroke-width="2.50" stroke-opacity="1.00" stroke-linejoin="round"/>
<path d="M11.72,15.19 C11.72,15.19 12.14,15.16 12.14,15.16 C12.14,15.16 12.84,15.03 12.84,15.03" fill="none" stroke="rgb(244, 212, 120)" stroke-width="2.50" stroke-opacity="1.00" stroke-linejoin="round"/>
<path d="M11.66,15.06 C11.66,15.06 13.31,15.06 13.31,15.06" fill="none" stroke="rgb(244, 212, 120)" stroke-width="2.50" stroke-opacity="1.00" stroke-linejoin="round"/>
<path d="M10.95,15.12 C10.95,15.12 11.08,15.06 11.08,15.06 C11.08,15.06 12.31,15.06 12.31,15.06" fill="none" stroke="rgb(244, 212, 120)" stroke-width="2.50" stroke-opacity="1.00" stroke-linejoin="round"/>
<path d="M12.22,9.31 C12.22,9.31 12.73,9.31 12.73,9.31 C12.73,9.31 13.66,8.88 13.66,8.88 C13.66,8.88 11.94,8.72 11.94,8.72 C11.94,8.72 12.58,8.72 12.58,8.72" fill="none" stroke="rgb(225, 254, 174)" stroke-width="0.70" stroke-opacity="1.00" stroke-linejoin="round"/>
<path d="M12.62,9.38 C12.62,9.38 12.81,9.34 12.81,9.34 C12.81,9.34 12.59,8.72 12.59,8.72" fill="none" stroke="rgb(225, 254, 174)" stroke-width="0.70" stroke-opacity="1.00" stroke-linejoin="round"/>
<path d="M14.00,5.81" fill="none" stroke="rgb(195, 152, 81)" stroke-width="0.70" stroke-opacity="1.00" stroke-linejoin="round"/>
<path d="M12.66,6.66 C12.66,6.66 12.88,6.75 12.88,6.75" fill="none" stroke="rgb(195, 152, 81)" stroke-width="0.70" stroke-opacity="1.00" stroke-linejoin="round"/>
<path d="M14.09,5.75 C14.09,5.75 14.09,6.03 14.09,6.03" fill="none" stroke="rgb(195, 152, 81)" stroke-width="0.70" stroke-opacity="1.00" stroke-linejoin="round"/>
<path d="M9.88,5.62 C9.88,5.62 9.88,6.19 9.88,6.19" fill="none" stroke="rgb(195, 152, 81)" stroke-width="0.70" stroke-opacity="1.00" stroke-linejoin="round"/>
<path d="M9.88,7.31 C9.88,7.31 9.88,7.52 9.88,7.52 C9.88,7.52 10.00,7.84 10.00,7.84" fill="none" stroke="rgb(195, 152, 81)" stroke-width="0.70" stroke-opacity="1.00" stroke-linejoin="round"/>
<path d="M8.22,6.39 C8.22,6.39 8.31,6.61 8.31,6.61 C8.31,6.61 8.41,7.06 8.41,7.06" fill="none" stroke="rgb(195, 152, 81)" stroke-width="0.70" stroke-opacity="1.00" stroke-linejoin="round"/>
<path d="M7.19,6.12 C7.19,6.12 7.16,6.48 7.16,6.48 C7.16,6.48 6.81,7.55 6.81,7.55 C6.81,7.55 6.72,7.69 6.72,7.69" fill="none" stroke="rgb(195, 152, 81)" stroke-width="0.70" stroke-opacity="1.00" stroke-linejoin="round"/>
<path d="M8.06,6.44 C8.06,6.44 8.33,6.56 8.33,6.56 C8.33,6.56 9.20,7.09 9.20,7.09 C9.20,7.09 9.31,7.09 9.31,7.09" fill="none" stroke="rgb(195, 152, 81)" stroke-width="0.70" stroke-opacity="1.00" stroke-linejoin="round"/>
<path d="M9.81,5.78 C9.81,5.78 9.81,5.94 9.81,5.94 C9.81,5.94 10.12,6.41 10.12,6.41" fill="none" stroke="rgb(195, 152, 81)" stroke-width="0.70" stroke-opacity="1.00" stroke-linejoin="round"/>
<path d="M10.16,6.41 C10.16,6.41 10.25,6.42 10.25,6.42 C10.25,6.42 11.16,7.31 11.16,7.31 C11.16,7.31 11.50,7.44 11.50,7.44" fill="none" stroke="rgb(195, 152, 81)" stroke-width="0.70" stroke-opacity="1.00" stroke-linejoin="round"/>
<path d="M11.94,6.88 C11.94,6.88 12.17,6.91 12.17,6.91 C12.17,6.91 13.17,7.22 13.17,7.22 C13.17,7.22 13.25,7.22 13.25,7.22" fill="none" stroke="rgb(195, 152, 81)" stroke-width="0.70" stroke-opacity="1.00" stroke-linejoin="round"/>
<path d="M13.53,7.22 C13.53,7.22 14.00,7.22 14.00,7.22 C14.00,7.22 14.41,6.78 14.41,6.78" fill="none" stroke="rgb(195, 152, 81)" stroke-width="0.70" stroke-opacity="1.00" stroke-linejoin="round"/>
<path d="M14.56,5.97 C14.56,5.97 14.25,6.06 14.25,6.06 C14.25,6.06 13.31,6.22 13.31,6.22" fill="none" stroke="rgb(195, 152, 81)" stroke-width="0.70" stroke-opacity="1.00" stroke-linejoin="round"/>
<path d="M13.06,6.00 C13.06,6.00 12.72,6.50 12.72,6.50 C12.72,6.50 11.78,7.12 11.78,7.12" fill="none" stroke="rgb(195, 152, 81)" stroke-width="0.70" stroke-opacity="1.00" stroke-linejoin="round"/>
<path d="M11.75,6.28 C11.75,6.28 11.02,6.84 11.02,6.84 C11.02,6.84 8.69,7.56 8.69,7.56" fill="none" stroke="rgb(195, 152, 81)" stroke-width="0.70" stroke-opacity="1.00" stroke-linejoin="round"/>
<path d="M8.09,7.16 C8.09,7.16 7.64,7.34 7.64,7.34 C7.64,7.34 5.56,7.38 5.56,7.38" fill="none" stroke="rgb(195, 152, 81)" stroke-width="0.70" stroke-opacity="1.00" stroke-linejoin="round"/>
<path d="M5.56,7.38 C5.56,7.38 5.83,7.34 5.83,7.34 C5.83,7.34 6.81,6.22 6.81,6.22" fill="none" stroke="rgb(195, 152, 81)" stroke-width="0.70" stroke-opacity="1.00" stroke-linejoin="round"/>
<path d="M7.69,5.38 C7.69,5.38 8.53,6.17 8.53,6.17 C8.53,6.17 9.67,6.62 9.67,6.62 C9.67,6.62 10.84,6.88 10.84,6.88 C10.84,6.88 11.92,7.19 11.92,7.19 C11.92,7.19 12.69,7.75 12.69,7.75" fill="none" stroke="rgb(195, 152, 81)" stroke-width="0.70" stroke-opacity="1.00" stroke-linejoin="round"/>
<path d="M13.11,7.03 C13.11,7.03 13.25,7.08 13.25,7.08 C13.25,7.08 13.31,6.94 13.31,6.94" fill="none" stroke="rgb(195, 152, 81)" stroke-width="0.70" stroke-opacity="1.00" stroke-linejoin="round"/>
<path d="M13.53,5.94" fill="none" stroke="rgb(195, 152, 81)" stroke-width="0.70" stroke-opacity="1.00" stroke-linejoin="round"/>
<path d="M13.28,5.94 C13.28,5.94 12.95,5.94 12.95,5.94 C12.95,5.94 11.02,6.53 11.02,6.53 C11.02,6.53 9.75,6.91 9.75,6.91" fill="none" stroke="rgb(195, 152, 81)" stroke-width="0.70" stroke-opacity="1.00" stroke-linejoin="round"/>
<path d="M9.22,7.33 C9.22,7.33 9.47,6.06 9.47,6.06" fill="none" stroke="rgb(195, 152, 81)" stroke-width="0.70" stroke-opacity="1.00" stroke-linejoin="round"/>
<path d="M9.47,5.80 C9.47,5.80 9.66,6.09 9.66,6.09" fill="none" stroke="rgb(195, 152, 81)" stroke-width="0.70" stroke-opacity="1.00" stroke-linejoin="round"/>
<path d="M10.00,6.66 C10.00,6.66 10.09,6.88 10.09,6.88 C10.09,6.88 10.28,6.97 10.28,6.97" fill="none" stroke="rgb(195, 152, 81)" stroke-width="0.70" stroke-opacity="1.00" stroke-linejoin="round"/>
<path d="M7.53,2.88 C7.53,2.88 8.16,3.33 8.16,3.33 C8.16,3.33 8.31,3.47 8.31,3.47" fill="none" stroke="rgb(201, 120, 82)" stroke-width="0.70" stroke-opacity="1.00" stroke-linejoin="round"/>
<path d="M10.00,5.03 C10.00,5.03 10.12,5.03 10.12,5.03" fill="none" stroke="rgb(201, 120, 82)" stroke-width="0.70" stroke-opacity="1.00" stroke-linejoin="round"/>
<path d="M10.19,4.91 C10.19,4.91 9.84,4.45 9.84,4.45 C9.84,4.45 8.97,3.56 8.97,3.56" fill="none" stroke="rgb(201, 120, 82)" stroke-width="0.70" stroke-opacity="1.00" stroke-linejoin="round"/>
<path d="M8.78,2.25 C8.78,2.25 8.61,2.27 8.61,2.27 C8.61,2.27 7.94,4.56 7.94,4.56" fill="none" stroke="rgb(201, 120, 82)" stroke-width="0.70" stroke-opacity="1.00" stroke-linejoin="round"/>
<path d="M7.72,4.12 C7.72,4.12 8.11,4.53 8.11,4.53 C8.11,4.53 9.84,4.75 9.84,4.75 C9.84,4.75 9.84,4.19 9.84,4.19" fill="none" stroke="rgb(201, 120, 82)" stroke-width="0.70" stroke-opacity="1.00" stroke-linejoin="round"/>
<path d="M8.75,2.25 C8.75,2.25 8.69,3.58 8.69,3.58 C8.69,3.58 8.66,3.44 8.66,3.44" fill="none" stroke="rgb(201, 120, 82)" stroke-width="0.70" stroke-opacity="1.00" stroke-linejoin="round"/>
<path d="M7.59,1.91 C7.59,1.91 7.53,2.89 7.53,2.89 C7.53,2.89 6.98,2.91 6.98,2.91" fill="none" stroke="rgb(201, 120, 82)" stroke-width="0.70" stroke-opacity="1.00" stroke-linejoin="round"/>
<path d="M6.69,2.69 C6.69,2.69 7.05,3.22 7.05,3.22 C7.05,3.22 8.03,4.06 8.03,4.06 C8.03,4.06 8.48,4.06 8.48,4.06" fill="none" stroke="rgb(201, 120, 82)" stroke-width="0.70" stroke-opacity="1.00" stroke-linejoin="round"/>
<path d="M8.62,3.25 C8.62,3.25 8.98,3.72 8.98,3.72 C8.98,3.72 9.98,4.28 9.98,4.28 C9.98,4.28 11.06,4.53 11.06,4.53 C11.06,4.53 11.44,4.56 11.44,4.56" fill="none" stroke="rgb(201, 120, 82)" stroke-width="0.70" stroke-opacity="1.00" stroke-linejoin="round"/>
<path d="M11.59,4.81 C11.59,4.81 13.77,4.75 13.77,4.75 C13.77,4.75 14.28,3.20 14.28,3.20 C14.28,3.20 11.22,4.38 11.22,4.38" fill="none" stroke="rgb(201, 120, 82)" stroke-width="0.70" stroke-opacity="1.00" stroke-linejoin="round"/>
<path d="M10.75,4.62 C10.75,4.62 10.59,4.69 10.59,4.69 C10.59,4.69 8.62,4.75 8.62,4.75" fill="none" stroke="rgb(201, 120, 82)" stroke-width="0.70" stroke-opacity="1.00" stroke-linejoin="round"/>
<path d="M8.03,2.34 C8.03,2.34 8.41,2.89 8.41,2.89 C8.41,2.89 9.00,3.80 9.00,3.80 C9.00,3.80 9.00,3.95 9.00,3.95" fill="none" stroke="rgb(129, 88, 68)" stroke-width="0.70" stroke-opacity="1.00" stroke-linejoin="round"/>
<path d="M10.53,4.44 C10.53,4.44 10.78,4.47 10.78,4.47 C10.78,4.47 10.91,4.56 10.91,4.56" fill="none" stroke="rgb(129, 88, 68)" stroke-width="0.70" stroke-opacity="1.00" stroke-linejoin="round"/>
<path d="M11.88,4.44 C11.88,4.44 12.22,4.47 12.22,4.47" fill="none" stroke="rgb(129, 88, 68)" stroke-width="0.70" stroke-opacity="1.00" stroke-linejoin="round"/>
<path d="M10.41,0.83 C10.41,0.83 9.00,2.47 9.00,2.47 C9.00,2.47 8.83,2.59 8.83,2.59" fill="none" stroke="rgb(129, 88, 68)" stroke-width="0.70" stroke-opacity="1.00" stroke-linejoin="round"/>
<path d="M6.97,4.16 C6.97,4.16 6.97,4.27 6.97,4.27 C6.97,4.27 6.94,4.34 6.94,4.34" fill="none" stroke="rgb(129, 88, 68)" stroke-width="0.70" stroke-opacity="1.00" stroke-linejoin="round"/>
<path d="M6.69,4.47 C6.69,4.47 9.38,4.38 9.38,4.38" fill="none" stroke="rgb(129, 88, 68)" stroke-width="0.70" stroke-opacity="1.00" stroke-linejoin="round"/>
<path d="M15.50,4.16" fill="none" stroke="rgb(129, 88, 68)" stroke-width="0.70" stroke-opacity="1.00" stroke-linejoin="round"/>
<path d="M6.66,14.59 C6.66,14.59 7.16,15.22 7.16,15.22" fill="none" stroke="rgb(129, 88, 68)" stroke-width="0.70" stroke-opacity="1.00" stroke-linejoin="round"/>
<path d="M7.72,15.03 C7.72,15.03 7.95,15.09 7.95,15.09 C7.95,15.09 9.08,15.56 9.08,15.56 C9.08,15.56 9.41,15.56 9.41,15.56" fill="none" stroke="rgb(129, 88, 68)" stroke-width="0.70" stroke-opacity="1.00" stroke-linejoin="round"/>
<path d="M10.03,15.03 C10.03,15.03 9.91,16.69 9.91,16.69" fill="none" stroke="rgb(129, 88, 68)" stroke-width="0.70" stroke-opacity="1.00" stroke-linejoin="round"/>
<path d="M9.06,13.38 C9.06,13.38 8.66,13.53 8.66,13.53 C8.66,13.53 6.95,13.50 6.95,13.50 C6.95,13.50 6.45,13.28 6.45,13.28" fill="none" stroke="rgb(198, 155, 100)" stroke-width="0.70" stroke-opacity="1.00" stroke-linejoin="round"/>
<path d="M6.12,13.25 C6.12,13.25 6.09,12.77 6.09,12.77 C6.09,12.77 7.34,13.41 7.34,13.41" fill="none" stroke="rgb(198, 155, 100)" stroke-width="0.70" stroke-opacity="1.00" stroke-linejoin="round"/>
<path d="M6.66,12.72 C6.66,12.72 6.75,12.72 6.75,12.72 C6.75,12.72 7.53,13.50 7.53,13.50 C7.53,13.50 8.41,12.95 8.41,12.95 C8.41,12.95 8.59,13.41 8.59,13.41" fill="none" stroke="rgb(198, 155, 100)" stroke-width="0.70" stroke-opacity="1.00" stroke-linejoin="round"/>
<path d="M10.00,13.28 C10.00,13.28 12.45,12.91 12.45,12.91" fill="none" stroke="rgb(198, 155, 100)" stroke-width="0.70" stroke-opacity="1.00" stroke-linejoin="round"/>
<path d="M12.62,12.91 C12.62,12.91 13.47,13.72 13.47,13.72" fill="none" stroke="rgb(198, 155, 100)" stroke-width="0.70" stroke-opacity="1.00" stroke-linejoin="round"/>
<path d="M14.06,13.38 C14.06,13.38 10.20,13.38 10.20,13.38 C10.20,13.38 10.03,13.20 10.03,13.20" fill="none" stroke="rgb(198, 155, 100)" stroke-width="0.70" stroke-opacity="1.00" stroke-linejoin="round"/>
<path d="M10.08,12.91 C10.08,12.91 11.80,12.69 11.80,12.69 C11.80,12.69 12.78,12.72 12.78,12.72" fill="none" stroke="rgb(198, 155, 100)" stroke-width="0.70" stroke-opacity="1.00" stroke-linejoin="round"/>
<path d="M13.00,12.66 C13.00,12.66 13.12,12.66 13.12,12.66" fill="none" stroke="rgb(198, 155, 100)" stroke-width="0.70" stroke-opacity="1.00" stroke-linejoin="round"/>
<path d="M7.84,12.50 C7.84,12.50 8.84,13.19 8.84,13.19 C8.84,13.19 9.97,14.19 9.97,14.19" fill="none" stroke="rgb(208, 145, 68)" stroke-width="0.70" stroke-opacity="1.00" stroke-linejoin="round"/>
<path d="M9.38,13.06 C9.38,13.06 8.55,13.44 8.55,13.44 C8.55,13.44 7.20,13.53 7.20,13.53 C7.20,13.53 6.08,13.28 6.08,13.28 C6.08,13.28 6.06,13.22 6.06,13.22" fill="none" stroke="rgb(208, 145, 68)" stroke-width="0.70" stroke-opacity="1.00" stroke-linejoin="round"/>
<path d="M5.88,13.22 C5.88,13.22 6.09,13.41 6.09,13.41 C6.09,13.41 8.06,13.88 8.06,13.88 C8.06,13.88 8.78,14.00 8.78,14.00" fill="none" stroke="rgb(208, 145, 68)" stroke-width="0.70" stroke-opacity="1.00" stroke-linejoin="round"/>
<path d="M6.44,12.84 C6.44,12.84 8.30,13.09 8.30,13.09 C8.30,13.09 9.62,13.25 9.62,13.25" fill="none" stroke="rgb(208, 145, 68)" stroke-width="0.70" stroke-opacity="1.00" stroke-linejoin="round"/>
<path d="M7.47,13.00 C7.47,13.00 7.69,12.84 7.69,12.84 C7.69,12.84 8.67,12.53 8.67,12.53 C8.67,12.53 9.16,12.41 9.16,12.41" fill="none" stroke="rgb(208, 145, 68)" stroke-width="0.70" stroke-opacity="1.00" stroke-linejoin="round"/>
<path d="M9.41,12.41 C9.41,12.41 9.62,12.41 9.62,12.41 C9.62,12.41 11.00,13.48 11.00,13.48" fill="none" stroke="rgb(208, 145, 68)" stroke-width="0.70" stroke-opacity="1.00" stroke-linejoin="round"/>
<path d="M11.38,12.62 C11.38,12.62 13.02,12.75 13.02,12.75 C13.02,12.75 13.56,12.94 13.56,12.94" fill="none" stroke="rgb(208, 145, 68)" stroke-width="0.70" stroke-opacity="1.00" stroke-linejoin="round"/>
<path d="M13.69,13.06 C13.69,13.06 13.52,13.19 13.52,13.19 C13.52,13.19 12.50,13.44 12.50,13.44 C12.50,13.44 11.09,13.53 11.09,13.53" fill="none" stroke="rgb(208, 145, 68)" stroke-width="0.70" stroke-opacity="1.00" stroke-linejoin="round"/>
<path d="M10.75,13.28 C10.75,13.28 10.56,13.94 10.56,13.94 C10.56,13.94 11.39,12.69 11.39,12.69 C11.39,12.69 11.81,12.59 11.81,12.59" fill="none" stroke="rgb(208, 145, 68)" stroke-width="0.70" stroke-opacity="1.00" stroke-linejoin="round"/>
<path d="M11.72,13.03 C11.72,13.03 12.42,12.70 12.42,12.70 C12.42,12.70 13.34,12.31 13.34,12.31" fill="none" stroke="rgb(208, 145, 68)" stroke-width="0.70" stroke-opacity="1.00" stroke-linejoin="round"/>
<path d="M13.81,13.66 C13.81,13.66 14.23,13.81 14.23,13.81 C14.23,13.81 15.03,14.38 15.03,14.38" fill="none" stroke="rgb(208, 145, 68)" stroke-width="0.70" stroke-opacity="1.00" stroke-linejoin="round"/>
<path d="M6.06,12.72 C6.06,12.72 5.81,13.08 5.81,13.08 C5.81,13.08 5.81,13.28 5.81,13.28" fill="none" stroke="rgb(255, 205, 142)" stroke-width="0.70" stroke-opacity="1.00" stroke-linejoin="round"/>
<path d="M11.94,12.41 C11.94,12.41 11.95,13.03 11.95,13.03 C11.95,13.03 13.39,13.16 13.39,13.16" fill="none" stroke="rgb(255, 247, 40)" stroke-width="0.70" stroke-opacity="1.00" stroke-linejoin="round"/>
<path d="M13.38,12.94 C13.38,12.94 13.23,12.84 13.23,12.84 C13.23,12.84 11.98,13.09 11.98,13.09 C11.98,13.09 10.12,13.28 10.12,13.28" fill="none" stroke="rgb(255, 247, 40)" stroke-width="0.70" stroke-opacity="1.00" stroke-linejoin="round"/>
<path d="M12.34,12.95 C12.34,12.95 9.33,12.81 9.33,12.81 C9.33,12.81 12.47,12.75 12.47,12.75 C12.47,12.75 8.78,12.94 8.78,12.94 C8.78,12.94 11.48,12.72 11.48,12.72 C11.48,12.72 12.55,12.72 12.55,12.72 C12.55,12.72 13.03,12.91 13.03,12.91" fill="none" stroke="rgb(255, 247, 40)" stroke-width="0.70" stroke-opacity="1.00" stroke-linejoin="round"/>
<path d="M13.06,12.94 C13.06,12.94 12.58,13.41 12.58,13.41 C12.58,13.41 12.31,13.62 12.31,13.62" fill="none" stroke="rgb(255, 247, 40)" stroke-width="0.70" stroke-opacity="1.00" stroke-linejoin="round"/>
<path d="M8.09,13.36 C8.09,13.36 8.05,13.31 8.05,13.31 C8.05,13.31 7.03,13.19 7.03,13.19 C7.03,13.19 6.50,13.41 6.50,13.41" fill="none" stroke="rgb(255, 247, 40)" stroke-width="0.70" stroke-opacity="1.00" stroke-linejoin="round"/>
<path d="M10.66,13.16 C10.66,13.16 10.73,13.06 10.73,13.06 C10.73,13.06 13.09,12.72 13.09,12.72 C13.09,12.72 13.12,12.77 13.12,12.77" fill="none" stroke="rgb(255, 255, 255)" stroke-width="0.70" stroke-opacity="1.00" stroke-linejoin="round"/>
<path d="M11.91,13.16 C11.91,13.16 13.39,12.81 13.39,12.81 C13.39,12.81 12.14,12.59 12.14,12.59 C12.00,12.59 14.18,12.69 14.09,12.69 C13.89,12.68 13.62,12.72 13.56,12.72" fill="none" stroke="rgb(255, 255, 255)" stroke-width="0.70" stroke-opacity="1.00" stroke-linejoin="round"/>
<path d="M11.00,12.69 C11.00,12.69 11.09,12.59 11.09,12.59 C11.09,12.59 14.41,12.56 14.41,12.56" fill="none" stroke="rgb(255, 255, 255)" stroke-width="0.70" stroke-opacity="1.00" stroke-linejoin="round"/>
<path d="M11.72,12.59 C11.72,12.59 15.06,12.59 15.06,12.59 C15.06,12.59 14.94,12.59 14.94,12.59" fill="none" stroke="rgb(255, 255, 255)" stroke-width="0.70" stroke-opacity="1.00" stroke-linejoin="round"/>
<path d="M10.28,12.59 C10.28,12.59 13.98,12.56 13.98,12.56 C13.98,12.56 11.17,12.56 11.17,12.56 C11.17,12.56 13.30,12.44 13.30,12.44 C13.30,12.44 10.05,12.56 10.05,12.56 C10.05,12.56 13.98,12.56 13.98,12.56 C13.98,12.56 14.44,12.59 14.44,12.59" fill="none" stroke="rgb(255, 255, 255)" stroke-width="0.70" stroke-opacity="1.00" stroke-linejoin="round"/>
<path d="M12.12,10.62 C12.12,10.62 12.61,10.81 12.61,10.81 C12.61,10.81 10.77,10.84 10.77,10.84 C10.77,10.84 13.66,10.78 13.66,10.78 C13.66,10.78 10.81,10.91 10.81,10.91 C10.81,10.91 13.41,10.91 13.41,10.91 C13.41,10.91 11.23,10.91 11.23,10.91 C11.23,10.91 13.36,10.72 13.36,10.72 C13.36,10.72 10.59,10.72 10.59,10.72 C10.59,10.72 11.50,10.72 11.50,10.72" fill="none" stroke="rgb(255, 255, 255)" stroke-width="0.70" stroke-opacity="1.00" stroke-linejoin="round"/>
<path d="M11.44,10.72 C11.44,10.72 12.89,10.56 12.89,10.56 C12.89,10.56 10.30,10.59 10.30,10.59 C10.30,10.59 12.38,10.59 12.38,10.59 C12.38,10.59 10.98,10.91 10.98,10.91 C10.98,10.91 13.89,10.91 13.89,10.91 C13.89,10.91 10.91,10.78 10.91,10.78" fill="none" stroke="rgb(255, 212, 106)" stroke-width="0.70" stroke-opacity="1.00" stroke-linejoin="round"/>
<path d="M6.22,10.84 C6.22,10.84 7.81,10.88 7.81,10.88" fill="none" stroke="rgb(255, 212, 106)" stroke-width="0.70" stroke-opacity="1.00" stroke-linejoin="round"/>
<path d="M7.56,11.53 C7.56,11.53 10.84,11.47 10.84,11.47 C10.84,11.47 10.84,11.69 10.84,11.69" fill="none" stroke="rgb(179, 86, 76)" stroke-width="0.70" stroke-opacity="1.00" stroke-linejoin="round"/>
<path d="M8.61,11.67 C8.61,11.67 8.80,11.56 8.80,11.56 C8.80,11.56 9.98,11.41 9.98,11.41 C9.98,11.41 11.08,11.19 11.08,11.19 C11.08,11.19 11.00,11.19 11.00,11.19" fill="none" stroke="rgb(179, 86, 76)" stroke-width="0.70" stroke-opacity="1.00" stroke-linejoin="round"/>
<path d="M8.25,10.72 C8.25,10.72 8.61,10.72 8.61,10.72 C8.61,10.72 10.88,10.84 10.88,10.84" fill="none" stroke="rgb(179, 86, 76)" stroke-width="0.70" stroke-opacity="1.00" stroke-linejoin="round"/>
<path d="M7.38,10.59 C7.38,10.59 8.22,10.62 8.22,10.62 C8.22,10.62 9.23,10.75 9.23,10.75 C9.23,10.75 9.38,10.84 9.38,10.84" fill="none" stroke="rgb(179, 86, 76)" stroke-width="0.70" stroke-opacity="1.00" stroke-linejoin="round"/>
<path d="M7.81,10.62 C7.81,10.62 12.05,11.44 12.05,11.44 C12.05,11.44 11.84,11.53 11.84,11.53" fill="none" stroke="rgb(179, 86, 76)" stroke-width="0.70" stroke-opacity="1.00" stroke-linejoin="round"/>
<path d="M8.00,10.72 C8.00,10.72 8.23,10.78 8.23,10.78 C8.23,10.78 9.42,11.16 9.42,11.16 C9.42,11.16 10.50,11.38 10.50,11.38 C10.50,11.38 10.44,11.38 10.44,11.38" fill="none" stroke="rgb(179, 86, 76)" stroke-width="0.70" stroke-opacity="1.00" stroke-linejoin="round"/>
<path d="M7.53,11.03 C7.53,11.03 10.00,11.03 10.00,11.03" fill="none" stroke="rgb(179, 86, 76)" stroke-width="0.70" stroke-opacity="1.00" stroke-linejoin="round"/>
<path d="M5.47,11.03 C5.47,11.03 9.62,11.38 9.62,11.38" fill="none" stroke="rgb(179, 86, 76)" stroke-width="0.70" stroke-opacity="1.00" stroke-linejoin="round"/>
</g>
</svg>
