<?xml version='1.0' encoding='utf-8'?>
<svg xmlns="http://www.w3.org/2000/svg" version="1.0" viewBox="0 0 500 500"> <g transform="translate(-38.054 173.65)"> <path d="m142.31 300.94h288.87v25.404h-288.87v-25.404zm-52.683-474.6h396.6v25.404h-396.6v-25.404zm14.773 44.067 5.2167 41.945-58.587-32.943-12.975 22.049 75.441 42.467 42.269 340.13h17.121l-39.794-413.65h-28.692zm55.578 0 31.367 413.65h34.912l-29.494-413.65h-36.784zm72.164 0 12.64 413.65h33.708l-8.427-413.65h-37.921zm73.368 0-8.427 413.65h34.176l12.64-413.65h-38.39zm73.769 0-29.494 413.65h34.912l31.367-413.65h-36.784zm63.67 0-39.794 413.65h16.988l42.202-340.06 75.709-42.532-13.042-22.049-58.721 33.074 5.2167-42.076h-28.558z"/> <g transform="translate(-1607.7 -207.38)"> <g transform="translate(-3.5 457.5)"/> </g> </g> </svg>